<?xml version="1.0" encoding="utf-8"?>
<!-- Generator: Adobe Illustrator 24.0.1, SVG Export Plug-In . SVG Version: 6.00 Build 0)  -->
<svg version="1.1" id="Layer_1" xmlns="http://www.w3.org/2000/svg" xmlns:xlink="http://www.w3.org/1999/xlink" x="0px" y="0px"
	 viewBox="0 0 1500 1500" style="enable-background:new 0 0 1500 1500;" xml:space="preserve">
<style type="text/css">
	.st0{fill:#00CC99;}
	.st1{fill:none;stroke:#000000;stroke-miterlimit:10;}
</style>
<g>
	<path class="st0" d="M750.41,50.64c-25.51,0-50.7,1.37-75.5,4.03c-31.34,3.36-62.05,8.79-92,16.15
		c-305.43,75.06-532,350.74-532,679.32s226.57,604.26,532,679.32c29.95,7.36,60.66,12.79,92,16.15c24.8,2.66,49.99,4.03,75.5,4.03
		c386.32,0,699.5-313.18,699.5-699.5S1136.73,50.64,750.41,50.64z M750.41,1421.64c-25.52,0-50.72-1.42-75.5-4.2
		c-31.37-3.51-62.09-9.18-92-16.86c-289.81-74.41-504-337.41-504-650.44s214.19-576.03,504-650.44c29.91-7.68,60.63-13.35,92-16.86
		c24.78-2.78,49.98-4.2,75.5-4.2c370.86,0,671.5,300.64,671.5,671.5S1121.27,1421.64,750.41,1421.64z"/>
</g>
<path class="st1" d="M244.5,662c0,0.17,0,0.34,0.01,0.5h-0.01V662z"/>
<path class="st1" d="M789.5,662v0.5h-0.01C789.5,662.34,789.5,662.17,789.5,662z"/>
<path class="st0" d="M754,408H274c-7.73,0-14,5.74-14,12.82v207.81c0,7.08,6.27,12.82,14,12.82h206.5v24.26h-62
	c-7.73,0-14,5.74-14,12.82v33.87c0,7.08,6.27,12.82,14,12.82H500v161.25c-70.38,1.22-126.2,11.25-132,23.8
	c-0.33,0.71-0.5,1.43-0.5,2.16c0,0.73,0.17,1.45,0.5,2.16c6.19,13.4,69.42,23.93,146.5,23.93h1c76.63-0.09,139.33-10.59,145.5-23.93
	c0.33-0.71,0.5-1.43,0.5-2.16c0-0.73-0.17-1.45-0.5-2.16c-5.63-12.19-58.47-22.01-126-23.67V725.2h86.5c7.73,0,14-5.74,14-12.82
	v-33.87c0-7.08-6.27-12.82-14-12.82h-60v-24.26H754c7.73,0,14-5.74,14-12.82V420.82C768,413.74,761.73,408,754,408z M745.5,602.53
	c0,7.08-6.27,12.82-14,12.82h-437c-7.73,0-14-5.74-14-12.82v-160.2c0-7.08,6.27-12.82,14-12.82h437c7.73,0,14,5.74,14,12.82V602.53z
	"/>
<path class="st0" d="M662,983.83v29c-8.47,14.11-70.08,25.07-145,25.17h-1c-77.08,0-140.31-11.5-146.5-26.14
	c-0.33-0.78-0.5-1.56-0.5-2.36v-29c0,0.8,0.17,1.58,0.5,2.36c1.87,4.41,8.9,8.53,19.93,12.14c25.59,8.38,72.7,14,126.57,14h1
	c53.45-0.07,100.13-5.67,125.57-14C652.79,991.66,659.58,987.87,662,983.83z"/>
<path class="st0" d="M662,1078.83v29c-8.47,14.11-70.08,25.07-145,25.17h-1c-77.08,0-140.31-11.5-146.5-26.14
	c-0.33-0.78-0.5-1.56-0.5-2.36v-29c0,0.8,0.17,1.58,0.5,2.36c1.87,4.41,8.9,8.53,19.93,12.14c25.59,8.38,72.7,14,126.57,14h1
	c53.45-0.07,100.13-5.67,125.57-14C652.79,1086.66,659.58,1082.87,662,1078.83z"/>
<path class="st0" d="M662,1124.83v29c-8.47,14.11-70.08,25.07-145,25.17h-1c-77.08,0-140.31-11.5-146.5-26.14
	c-0.33-0.78-0.5-1.56-0.5-2.36v-29c0,0.8,0.17,1.58,0.5,2.36c1.87,4.41,8.9,8.53,19.93,12.14c25.59,8.38,72.7,14,126.57,14h1
	c53.45-0.07,100.13-5.67,125.57-14C652.79,1132.66,659.58,1128.87,662,1124.83z"/>
<path class="st0" d="M662,936.83v29c-8.47,14.11-70.08,25.07-145,25.17h-1c-77.08,0-140.31-11.5-146.5-26.14
	c-0.33-0.78-0.5-1.56-0.5-2.36v-29c0,0.8,0.17,1.58,0.5,2.36c1.87,4.41,8.9,8.53,19.93,12.14c25.59,8.38,72.7,14,126.57,14h1
	c53.45-0.07,100.13-5.67,125.57-14C652.79,944.66,659.58,940.87,662,936.83z"/>
<path class="st0" d="M972,697h278c2.76,0,5-2.24,5-5V544c0-2.76-2.24-5-5-5h-148.5v-0.92l-2-6.6v-0.01l-3.94-12.97h-83.06
	c-3.31,0-6,2.69-6,6V539H972c-2.76,0-5,2.24-5,5v66H843v435H662v-14.17c-2.42,4.04-9.21,7.83-19.43,11.17
	c-25.44,8.33-72.12,13.93-125.57,14h-1c-53.87,0-100.98-5.62-126.57-14c-11.03-3.61-18.06-7.73-19.93-12.14
	c-0.33-0.78-0.5-1.56-0.5-2.36v29c0,0.8,0.17,1.58,0.5,2.36c6.19,14.64,69.42,26.14,146.5,26.14h1c49.05-0.07,92.39-4.79,118.85-12
	H843v38h124v49c0,2.76,2.24,5,5,5h278c2.76,0,5-2.24,5-5v-148c0-2.76-2.24-5-5-5h-148.5v-0.92l-2-6.6v-0.01l-3.94-12.97h-83.06
	c-3.31,0-6,2.69-6,6v14.5H972c-2.76,0-5,2.24-5,5v70h-98V868h98v58c0,2.76,2.24,5,5,5h278c2.76,0,5-2.24,5-5V778c0-2.76-2.24-5-5-5
	h-148.5v-0.92l-2-6.6v-0.01l-3.94-12.97h-83.06c-3.31,0-6,2.69-6,6V773H972c-2.76,0-5,2.24-5,5v64h-98V634h98v58
	C967,694.76,969.24,697,972,697z M990.5,1031.5c0-3.31,2.69-6,6-6h24v-21c0-3.31,2.69-6,6-6h55c1.21,0,2.33,0.35,3.27,0.97v0.01
	l2.28,7.52h0.45v1.5l5.16,17h132.84c3.31,0,6,2.69,6,6v109c0,3.31-2.69,6-6,6h-229c-3.31,0-6-2.69-6-6V1031.5z M990.5,797.5
	c0-3.31,2.69-6,6-6h24v-21c0-3.31,2.69-6,6-6h55c1.21,0,2.33,0.35,3.27,0.97v0.01l2.28,7.52h0.45v1.5l5.16,17h132.84
	c3.31,0,6,2.69,6,6v109c0,3.31-2.69,6-6,6h-229c-3.31,0-6-2.69-6-6V797.5z M990.5,563.5c0-3.31,2.69-6,6-6h24v-21c0-3.31,2.69-6,6-6
	h55c1.21,0,2.33,0.35,3.27,0.97v0.01l2.28,7.52h0.45v1.5l5.16,17h132.84c3.31,0,6,2.69,6,6v109c0,3.31-2.69,6-6,6h-229
	c-3.31,0-6-2.69-6-6V563.5z"/>
</svg>
