<?xml version="1.0" encoding="utf-8"?>
<!-- Generator: Adobe Illustrator 24.0.1, SVG Export Plug-In . SVG Version: 6.00 Build 0)  -->
<svg version="1.1" id="Layer_1" xmlns="http://www.w3.org/2000/svg" xmlns:xlink="http://www.w3.org/1999/xlink" x="0px" y="0px"
	 viewBox="0 0 1500 1500" style="enable-background:new 0 0 1500 1500;" xml:space="preserve">
<style type="text/css">
	.st0{fill:#00CC99;}
	.st1{fill:none;}
</style>
<g>
	<path class="st0" d="M749.5,50c-25.51,0-50.7,1.37-75.5,4.03c-31.34,3.36-62.05,8.79-92,16.15C276.57,145.24,50,420.92,50,749.5
		s226.57,604.26,532,679.32c29.95,7.36,60.66,12.79,92,16.15c24.8,2.66,49.99,4.03,75.5,4.03c386.32,0,699.5-313.18,699.5-699.5
		S1135.82,50,749.5,50z M749.5,1421c-25.52,0-50.72-1.42-75.5-4.2c-31.37-3.51-62.09-9.18-92-16.86
		C292.19,1325.53,78,1062.53,78,749.5S292.19,173.47,582,99.06c29.91-7.68,60.63-13.35,92-16.86c24.78-2.78,49.98-4.2,75.5-4.2
		c370.86,0,671.5,300.64,671.5,671.5S1120.36,1421,749.5,1421z"/>
</g>
<path class="st0" d="M692.5,450.5h-509c-7.73,0-14,6.27-14,14v327c0,7.73,6.27,14,14,14h215v25h-62c-5.52,0-10.52,2.24-14.14,5.86
	s-5.86,8.62-5.86,14.14c0,11.05,8.95,20,20,20h205c5.52,0,10.52-2.24,14.14-5.86c3.62-3.62,5.86-8.62,5.86-14.14
	c0-11.05-8.95-20-20-20h-67v-25h218c7.73,0,14-6.27,14-14v-327C706.5,456.77,700.23,450.5,692.5,450.5z M688.5,769.5
	c0,7.73-6.27,14-14,14h-474c-7.73,0-14-6.27-14-14v-286c0-7.73,6.27-14,14-14h474c7.73,0,14,6.27,14,14V769.5z"/>
<path class="st0" d="M1097.5,610.5h-360c-7.73,0-14,6.27-14,14v256c0,7.73,6.27,14,14,14h360c7.73,0,14-6.27,14-14v-256
	C1111.5,616.77,1105.23,610.5,1097.5,610.5z M1096.5,864.5c0,7.73-6.27,14-14,14h-330c-7.73,0-14-6.27-14-14v-224
	c0-7.73,6.27-14,14-14h330c7.73,0,14,6.27,14,14V864.5z"/>
<path class="st0" d="M1295.5,762.5h-153c-7.73,0-14,6.27-14,14v299c0,7.73,6.27,14,14,14h153c7.73,0,14-6.27,14-14v-299
	C1309.5,768.77,1303.23,762.5,1295.5,762.5z M1243.75,767.17c0.3-0.16,0.64-0.24,1-0.24c1.24,0,2.25,1.02,2.25,2.28
	c0,1.27-1.01,2.29-2.25,2.29s-2.25-1.02-2.25-2.29C1242.5,768.32,1243.01,767.54,1243.75,767.17z M1201.09,768.09
	c0.36-0.37,0.86-0.59,1.41-0.59h32c1.1,0,2,0.9,2,2c0,0.55-0.22,1.05-0.59,1.41c-0.36,0.37-0.86,0.59-1.41,0.59h-32
	c-1.1,0-2-0.9-2-2C1200.5,768.95,1200.72,768.45,1201.09,768.09z M1300.5,1066.5c0,7.73-6.27,14-14,14h-133c-7.73,0-14-6.27-14-14
	v-281c0-7.73,6.27-14,14-14h31.03c-0.02,0.17-0.03,0.33-0.03,0.5c0,4.14,3.36,7.5,7.5,7.5h55c2.07,0,3.94-0.84,5.3-2.2
	c1.36-1.36,2.2-3.23,2.2-5.3c0-0.17-0.01-0.33-0.03-0.5h32.03c7.73,0,14,6.27,14,14V1066.5z"/>
<path class="st1" d="M1247,769.21c0,1.27-1.01,2.29-2.25,2.29s-2.25-1.02-2.25-2.29c0-0.89,0.51-1.67,1.25-2.04
	c0.3-0.16,0.64-0.24,1-0.24C1245.99,766.93,1247,767.95,1247,769.21z"/>
<path class="st0" d="M638,562H241c-8.28,0-15-6.72-15-15v-25c0-8.28,6.72-15,15-15h397c8.28,0,15,6.72,15,15v25
	C653,555.28,646.28,562,638,562z"/>
<path class="st0" d="M496.5,723.5h-259c-3.87,0-7-3.13-7-7v-130c0-3.87,3.13-7,7-7h259c3.87,0,7,3.13,7,7v130
	C503.5,720.37,500.37,723.5,496.5,723.5z"/>
<path class="st0" d="M645.5,596.5h-126c-2.76,0-5-2.24-5-5v-7c0-2.76,2.24-5,5-5h126c2.76,0,5,2.24,5,5v7
	C650.5,594.26,648.26,596.5,645.5,596.5z"/>
<path class="st0" d="M645.5,627.5h-126c-2.76,0-5-2.24-5-5v-7c0-2.76,2.24-5,5-5h126c2.76,0,5,2.24,5,5v7
	C650.5,625.26,648.26,627.5,645.5,627.5z"/>
<path class="st0" d="M645.5,658.5h-126c-2.76,0-5-2.24-5-5v-7c0-2.76,2.24-5,5-5h126c2.76,0,5,2.24,5,5v7
	C650.5,656.26,648.26,658.5,645.5,658.5z"/>
<path class="st0" d="M645.5,690.5h-126c-2.76,0-5-2.24-5-5v-7c0-2.76,2.24-5,5-5h126c2.76,0,5,2.24,5,5v7
	C650.5,688.26,648.26,690.5,645.5,690.5z"/>
<path class="st0" d="M645.5,719.5h-126c-2.76,0-5-2.24-5-5v-7c0-2.76,2.24-5,5-5h126c2.76,0,5,2.24,5,5v7
	C650.5,717.26,648.26,719.5,645.5,719.5z"/>
<path class="st0" d="M1076.5,702.5h-320c-3.87,0-7-3.13-7-7v-39c0-3.87,3.13-7,7-7h320c3.87,0,7,3.13,7,7v39
	C1083.5,699.37,1080.37,702.5,1076.5,702.5z"/>
<path class="st0" d="M941.5,827.5h-183c-3.31,0-6-2.69-6-6v-92c0-3.31,2.69-6,6-6h183c3.31,0,6,2.69,6,6v92
	C947.5,824.81,944.81,827.5,941.5,827.5z"/>
<path class="st0" d="M1073.5,736.5h-91c-2.21,0-4-1.79-4-4v-5c0-2.21,1.79-4,4-4h91c2.21,0,4,1.79,4,4v5
	C1077.5,734.71,1075.71,736.5,1073.5,736.5z"/>
<path class="st0" d="M1073.5,762.5h-91c-2.21,0-4-1.79-4-4v-5c0-2.21,1.79-4,4-4h91c2.21,0,4,1.79,4,4v5
	C1077.5,760.71,1075.71,762.5,1073.5,762.5z"/>
<path class="st0" d="M1073.5,787.5h-91c-2.21,0-4-1.79-4-4v-5c0-2.21,1.79-4,4-4h91c2.21,0,4,1.79,4,4v5
	C1077.5,785.71,1075.71,787.5,1073.5,787.5z"/>
<path class="st0" d="M1073.5,818.5h-91c-2.21,0-4-1.79-4-4v-5c0-2.21,1.79-4,4-4h91c2.21,0,4,1.79,4,4v5
	C1077.5,816.71,1075.71,818.5,1073.5,818.5z"/>
<path class="st0" d="M1282.5,875.5h-123c-4.42,0-8-3.58-8-8v-53c0-4.42,3.58-8,8-8h123c4.42,0,8,3.58,8,8v53
	C1290.5,871.92,1286.92,875.5,1282.5,875.5z"/>
<path class="st0" d="M1277.5,946.5h-113c-4.97,0-9-4.03-9-9v-43c0-4.97,4.03-9,9-9h113c4.97,0,9,4.03,9,9v43
	C1286.5,942.47,1282.47,946.5,1277.5,946.5z"/>
<path class="st0" d="M1278.5,983.5h-115c-4.42,0-8-3.58-8-8v-1c0-4.42,3.58-8,8-8h115c4.42,0,8,3.58,8,8v1
	C1286.5,979.92,1282.92,983.5,1278.5,983.5z"/>
<path class="st0" d="M1279.5,1008.5h-115c-4.42,0-8-3.58-8-8v-1c0-4.42,3.58-8,8-8h115c4.42,0,8,3.58,8,8v1
	C1287.5,1004.92,1283.92,1008.5,1279.5,1008.5z"/>
<path class="st0" d="M1279.5,1035.5h-115c-4.42,0-8-3.58-8-8v-1c0-4.42,3.58-8,8-8h115c4.42,0,8,3.58,8,8v1
	C1287.5,1031.92,1283.92,1035.5,1279.5,1035.5z"/>
</svg>
